<svg width="500" height="400" viewBox="0 0 500 400" fill="none" xmlns="http://www.w3.org/2000/svg">
  <!-- Background Elements -->
  <rect width="500" height="400" rx="20" fill="#1a1a2a" />
  
  <!-- Grid Pattern -->
  <path d="M0 40 H500 M0 80 H500 M0 120 H500 M0 160 H500 M0 200 H500 M0 240 H500 M0 280 H500 M0 320 H500 M0 360 H500" stroke="#2a2a3a" stroke-width="1" />
  <path d="M50 0 V400 M100 0 V400 M150 0 V400 M200 0 V400 M250 0 V400 M300 0 V400 M350 0 V400 M400 0 V400 M450 0 V400" stroke="#2a2a3a" stroke-width="1" />
  
  <!-- Decorative Elements -->
  <circle cx="400" cy="80" r="60" fill="url(#blueGradient)" opacity="0.1" />
  <circle cx="100" cy="320" r="80" fill="url(#purpleGradient)" opacity="0.1" />
  
  <!-- Cloud Shape -->
  <path d="M250 100 C230 100 215 115 215 135 C195 135 180 150 180 170 C180 190 195 205 215 205 L285 205 C305 205 320 190 320 170 C320 150 305 135 285 135 C285 115 270 100 250 100 Z" fill="#34495e" />
  <path d="M250 110 C235 110 225 120 225 135 C210 135 200 145 200 160 C200 175 210 185 225 185 L275 185 C290 185 300 175 300 160 C300 145 290 135 275 135 C275 120 265 110 250 110 Z" fill="#2c3e50" />
  
  <!-- Server Racks -->
  <rect x="150" y="220" width="200" height="120" rx="4" fill="#2c3e50" />
  
  <!-- Server Units -->
  <rect x="160" y="230" width="180" height="20" rx="2" fill="#34495e" />
  <rect x="170" y="235" width="10" height="10" rx="1" fill="#00C9FF" opacity="0.8" />
  <rect x="190" y="235" width="40" height="10" rx="1" fill="#ffffff" opacity="0.3" />
  
  <rect x="160" y="260" width="180" height="20" rx="2" fill="#34495e" />
  <rect x="170" y="265" width="10" height="10" rx="1" fill="#9A29FF" opacity="0.8" />
  <rect x="190" y="265" width="40" height="10" rx="1" fill="#ffffff" opacity="0.3" />
  
  <rect x="160" y="290" width="180" height="20" rx="2" fill="#34495e" />
  <rect x="170" y="295" width="10" height="10" rx="1" fill="#00C9FF" opacity="0.8" />
  <rect x="190" y="295" width="40" height="10" rx="1" fill="#ffffff" opacity="0.3" />
  
  <rect x="160" y="320" width="180" height="10" rx="2" fill="#34495e" />
  
  <!-- Connection Lines -->
  <path d="M250 185 L250 220" stroke="#00C9FF" stroke-width="2" stroke-dasharray="5 3" />
  
  <!-- DevOps Infinity Symbol -->
  <path d="M380 260 C380 245 365 235 350 235 C335 235 320 245 320 260 C320 275 335 285 350 285 C365 285 380 275 380 260 Z" fill="none" stroke="#00C9FF" stroke-width="3" />
  <path d="M320 260 C320 245 305 235 290 235 C275 235 260 245 260 260 C260 275 275 285 290 285 C305 285 320 275 320 260 Z" fill="none" stroke="#9A29FF" stroke-width="3" />
  
  <!-- Code/Config Elements -->
  <rect x="50" y="150" width="100" height="10" rx="2" fill="#00C9FF" opacity="0.8" />
  <rect x="50" y="170" width="80" height="10" rx="2" fill="#ffffff" opacity="0.5" />
  <rect x="50" y="190" width="90" height="10" rx="2" fill="#9A29FF" opacity="0.8" />
  
  <rect x="50" y="220" width="70" height="10" rx="2" fill="#ffffff" opacity="0.5" />
  <rect x="50" y="240" width="60" height="10" rx="2" fill="#00C9FF" opacity="0.8" />
  <rect x="50" y="260" width="80" height="10" rx="2" fill="#9A29FF" opacity="0.8" />
  
  <!-- Container Icons -->
  <rect x="390" y="150" width="30" height="30" rx="4" fill="#00C9FF" opacity="0.6" />
  <rect x="430" y="150" width="30" height="30" rx="4" fill="#9A29FF" opacity="0.6" />
  <rect x="390" y="190" width="30" height="30" rx="4" fill="#ffffff" opacity="0.2" />
  <rect x="430" y="190" width="30" height="30" rx="4" fill="#00C9FF" opacity="0.6" />
  
  <!-- Gradients -->
  <defs>
    <linearGradient id="blueGradient" x1="0%" y1="0%" x2="100%" y2="100%">
      <stop offset="0%" stop-color="#00C9FF" />
      <stop offset="100%" stop-color="#0078FF" />
    </linearGradient>
    <linearGradient id="purpleGradient" x1="0%" y1="0%" x2="100%" y2="100%">
      <stop offset="0%" stop-color="#9A29FF" />
      <stop offset="100%" stop-color="#6900FF" />
    </linearGradient>
  </defs>
</svg>