<svg xmlns="http://www.w3.org/2000/svg" width="1920" height="600" viewBox="0 0 1920 600">
  <defs>
    <linearGradient id="grad1" x1="0%" y1="0%" x2="100%" y2="100%">
      <stop offset="0%" style="stop-color:#2c3e50;stop-opacity:0.9" />
      <stop offset="100%" style="stop-color:#4a6cf7;stop-opacity:0.8" />
    </linearGradient>
    <pattern id="pattern1" width="60" height="60" patternUnits="userSpaceOnUse" patternTransform="rotate(60)">
      <rect width="100%" height="100%" fill="url(#grad1)"/>
      <path d="M0,30 L60,30" stroke="rgba(255,255,255,0.1)" stroke-width="1"/>
      <path d="M30,0 L30,60" stroke="rgba(255,255,255,0.1)" stroke-width="1"/>
    </pattern>
  </defs>
  <rect width="100%" height="100%" fill="url(#pattern1)"/>
  
  <!-- Abstract shapes -->
  <g fill="rgba(255,255,255,0.03)">
    <circle cx="300" cy="150" r="100"/>
    <circle cx="1600" cy="400" r="150"/>
    <circle cx="960" cy="300" r="200"/>
    <circle cx="500" cy="450" r="80"/>
    <circle cx="1300" cy="150" r="120"/>
  </g>
  
  <!-- Flowing lines -->
  <g fill="none" stroke="rgba(255,255,255,0.05)" stroke-width="3">
    <path d="M0,150 Q480,50 960,150 T1920,150" />
    <path d="M0,300 Q480,200 960,300 T1920,300" />
    <path d="M0,450 Q480,350 960,450 T1920,450" />
  </g>
  
  <!-- Dots pattern -->
  <g fill="rgba(255,255,255,0.2)">
    <circle cx="100" cy="100" r="1"/>
    <circle cx="300" cy="200" r="1"/>
    <circle cx="500" cy="100" r="1"/>
    <circle cx="700" cy="300" r="1"/>
    <circle cx="900" cy="100" r="1"/>
    <circle cx="1100" cy="200" r="1"/>
    <circle cx="1300" cy="100" r="1"/>
    <circle cx="1500" cy="300" r="1"/>
    <circle cx="1700" cy="100" r="1"/>
    <circle cx="1900" cy="200" r="1"/>
    
    <circle cx="200" cy="400" r="1"/>
    <circle cx="400" cy="500" r="1"/>
    <circle cx="600" cy="400" r="1"/>
    <circle cx="800" cy="500" r="1"/>
    <circle cx="1000" cy="400" r="1"/>
    <circle cx="1200" cy="500" r="1"/>
    <circle cx="1400" cy="400" r="1"/>
    <circle cx="1600" cy="500" r="1"/>
    <circle cx="1800" cy="400" r="1"/>
  </g>
</svg>