<svg width="500" height="400" viewBox="0 0 500 400" fill="none" xmlns="http://www.w3.org/2000/svg">
  <!-- Background Elements -->
  <rect width="500" height="400" rx="20" fill="#1a1a2a" />
  
  <!-- Grid Pattern -->
  <path d="M0 40 H500 M0 80 H500 M0 120 H500 M0 160 H500 M0 200 H500 M0 240 H500 M0 280 H500 M0 320 H500 M0 360 H500" stroke="#2a2a3a" stroke-width="1" />
  <path d="M50 0 V400 M100 0 V400 M150 0 V400 M200 0 V400 M250 0 V400 M300 0 V400 M350 0 V400 M400 0 V400 M450 0 V400" stroke="#2a2a3a" stroke-width="1" />
  
  <!-- Decorative Elements -->
  <circle cx="400" cy="80" r="60" fill="url(#blueGradient)" opacity="0.1" />
  <circle cx="100" cy="320" r="80" fill="url(#purpleGradient)" opacity="0.1" />
  
  <!-- Mobile Phone Frame -->
  <rect x="180" y="60" width="140" height="280" rx="20" fill="#2c3e50" />
  <rect x="190" y="80" width="120" height="220" rx="2" fill="#111122" />
  
  <!-- Phone Elements -->
  <circle cx="250" cy="320" r="15" stroke="#7f8c8d" stroke-width="2" fill="none" />
  <rect x="235" y="70" width="30" height="5" rx="2.5" fill="#7f8c8d" />
  
  <!-- App UI Elements -->
  <rect x="200" y="90" width="100" height="20" rx="4" fill="url(#blueGradient)" opacity="0.8" />
  
  <!-- App Icons -->
  <rect x="205" y="120" width="25" height="25" rx="6" fill="#00C9FF" opacity="0.8" />
  <rect x="240" y="120" width="25" height="25" rx="6" fill="#9A29FF" opacity="0.8" />
  <rect x="275" y="120" width="25" height="25" rx="6" fill="#ffffff" opacity="0.3" />
  
  <rect x="205" y="155" width="25" height="25" rx="6" fill="#ffffff" opacity="0.3" />
  <rect x="240" y="155" width="25" height="25" rx="6" fill="#00C9FF" opacity="0.8" />
  <rect x="275" y="155" width="25" height="25" rx="6" fill="#9A29FF" opacity="0.8" />
  
  <!-- Content Blocks -->
  <rect x="205" y="190" width="95" height="10" rx="2" fill="#ffffff" opacity="0.5" />
  <rect x="205" y="205" width="65" height="5" rx="2" fill="#ffffff" opacity="0.3" />
  
  <rect x="205" y="220" width="95" height="30" rx="4" fill="#2a2a3a" />
  <rect x="210" y="232" width="40" height="6" rx="2" fill="#00C9FF" opacity="0.8" />
  
  <rect x="205" y="260" width="95" height="30" rx="4" fill="#2a2a3a" />
  <rect x="210" y="272" width="40" height="6" rx="2" fill="#9A29FF" opacity="0.8" />
  
  <!-- Floating Elements -->
  <rect x="350" y="120" width="80" height="15" rx="4" fill="#00C9FF" opacity="0.6" />
  <rect x="350" y="145" width="60" height="15" rx="4" fill="#ffffff" opacity="0.2" />
  <rect x="350" y="170" width="70" height="15" rx="4" fill="#9A29FF" opacity="0.6" />
  
  <rect x="70" y="120" width="80" height="15" rx="4" fill="#9A29FF" opacity="0.6" />
  <rect x="70" y="145" width="60" height="15" rx="4" fill="#ffffff" opacity="0.2" />
  <rect x="70" y="170" width="70" height="15" rx="4" fill="#00C9FF" opacity="0.6" />
  
  <!-- Code Elements -->
  <rect x="70" y="210" width="80" height="10" rx="2" fill="#00C9FF" opacity="0.8" />
  <rect x="70" y="230" width="60" height="10" rx="2" fill="#9A29FF" opacity="0.8" />
  <rect x="70" y="250" width="70" height="10" rx="2" fill="#ffffff" opacity="0.5" />
  
  <rect x="350" y="210" width="80" height="10" rx="2" fill="#9A29FF" opacity="0.8" />
  <rect x="350" y="230" width="60" height="10" rx="2" fill="#00C9FF" opacity="0.8" />
  <rect x="350" y="250" width="70" height="10" rx="2" fill="#ffffff" opacity="0.5" />
  
  <!-- Gradients -->
  <defs>
    <linearGradient id="blueGradient" x1="0%" y1="0%" x2="100%" y2="100%">
      <stop offset="0%" stop-color="#00C9FF" />
      <stop offset="100%" stop-color="#0078FF" />
    </linearGradient>
    <linearGradient id="purpleGradient" x1="0%" y1="0%" x2="100%" y2="100%">
      <stop offset="0%" stop-color="#9A29FF" />
      <stop offset="100%" stop-color="#6900FF" />
    </linearGradient>
  </defs>
</svg>