<svg width="500" height="400" viewBox="0 0 500 400" fill="none" xmlns="http://www.w3.org/2000/svg">
  <!-- Background Elements -->
  <rect width="500" height="400" rx="20" fill="#1a1a2a" />
  
  <!-- Grid Pattern -->
  <path d="M0 40 H500 M0 80 H500 M0 120 H500 M0 160 H500 M0 200 H500 M0 240 H500 M0 280 H500 M0 320 H500 M0 360 H500" stroke="#2a2a3a" stroke-width="1" />
  <path d="M50 0 V400 M100 0 V400 M150 0 V400 M200 0 V400 M250 0 V400 M300 0 V400 M350 0 V400 M400 0 V400 M450 0 V400" stroke="#2a2a3a" stroke-width="1" />
  
  <!-- Decorative Elements -->
  <circle cx="400" cy="80" r="60" fill="url(#blueGradient)" opacity="0.1" />
  <circle cx="100" cy="320" r="80" fill="url(#purpleGradient)" opacity="0.1" />
  
  <!-- Design Canvas -->
  <rect x="100" y="80" width="300" height="240" rx="8" fill="#2c3e50" />
  <rect x="100" y="80" width="300" height="30" rx="8" fill="#34495e" />
  <circle cx="120" cy="95" r="5" fill="#e74c3c" />
  <circle cx="140" cy="95" r="5" fill="#f1c40f" />
  <circle cx="160" cy="95" r="5" fill="#2ecc71" />
  
  <!-- Design Tools -->
  <rect x="110" y="120" width="30" height="190" rx="4" fill="#34495e" />
  
  <!-- Tool Icons -->
  <rect x="115" y="130" width="20" height="20" rx="4" fill="#8b5cf6" opacity="0.8" />
  <rect x="115" y="160" width="20" height="20" rx="4" fill="#9A29FF" opacity="0.8" />
  <rect x="115" y="190" width="20" height="20" rx="4" fill="#ffffff" opacity="0.5" />
  <rect x="115" y="220" width="20" height="20" rx="4" fill="#8b5cf6" opacity="0.8" />
  <rect x="115" y="250" width="20" height="20" rx="4" fill="#9A29FF" opacity="0.8" />
  <rect x="115" y="280" width="20" height="20" rx="4" fill="#ffffff" opacity="0.5" />
  
  <!-- UI Elements -->
  <!-- Header -->
  <rect x="150" y="120" width="240" height="40" rx="4" fill="url(#blueGradient)" opacity="0.8" />
  <rect x="170" y="135" width="80" height="10" rx="2" fill="#ffffff" opacity="0.9" />
  <circle cx="370" cy="140" r="10" fill="#ffffff" opacity="0.5" />
  <circle cx="340" cy="140" r="10" fill="#ffffff" opacity="0.5" />
  
  <!-- Content Area -->
  <rect x="150" y="170" width="240" height="140" rx="4" fill="#ffffff" opacity="0.05" />
  
  <!-- UI Components -->
  <rect x="170" y="190" width="80" height="80" rx="4" fill="#8b5cf6" opacity="0.6" />
  <rect x="260" y="190" width="80" height="80" rx="4" fill="#9A29FF" opacity="0.6" />
  <rect x="170" y="280" width="170" height="10" rx="2" fill="#ffffff" opacity="0.5" />
  <rect x="170" y="300" width="120" height="5" rx="2" fill="#ffffff" opacity="0.3" />
  
  <!-- Color Palette -->
  <circle cx="400" cy="190" r="10" fill="#8b5cf6" />
  <circle cx="400" cy="220" r="10" fill="#9A29FF" />
  <circle cx="400" cy="250" r="10" fill="#ffffff" opacity="0.8" />
  <circle cx="400" cy="280" r="10" fill="#2ecc71" opacity="0.8" />
  <circle cx="400" cy="310" r="10" fill="#e74c3c" opacity="0.8" />
  
  <!-- Wireframe Elements -->
  <rect x="50" y="120" width="40" height="40" rx="4" fill="none" stroke="#ffffff" stroke-width="2" opacity="0.3" />
  <rect x="50" y="170" width="40" height="20" rx="4" fill="none" stroke="#ffffff" stroke-width="2" opacity="0.3" />
  <circle cx="70" cy="220" r="20" fill="none" stroke="#ffffff" stroke-width="2" opacity="0.3" />
  <path d="M50 260 H90 M50 270 H80 M50 280 H70" stroke="#ffffff" stroke-width="2" opacity="0.3" />
  
  <!-- Gradients -->
  <defs>
    <linearGradient id="blueGradient" x1="0%" y1="0%" x2="100%" y2="100%">
      <stop offset="0%" stop-color="#8b5cf6" />
      <stop offset="100%" stop-color="#0078FF" />
    </linearGradient>
    <linearGradient id="purpleGradient" x1="0%" y1="0%" x2="100%" y2="100%">
      <stop offset="0%" stop-color="#9A29FF" />
      <stop offset="100%" stop-color="#6900FF" />
    </linearGradient>
  </defs>
</svg>